<mxfile host="Electron" agent="Mozilla/5.0 (Windows NT 10.0; Win64; x64) AppleWebKit/537.36 (KHTML, like Gecko) draw.io/24.7.17 Chrome/128.0.6613.36 Electron/32.0.1 Safari/537.36" version="24.7.17">
  <diagram name="Page-1" id="L9ayUt1zdnxHsfU4OUje">
    <mxGraphModel dx="1050" dy="621" grid="1" gridSize="10" guides="1" tooltips="1" connect="1" arrows="1" fold="1" page="1" pageScale="1" pageWidth="827" pageHeight="1169" math="0" shadow="0">
      <root>
        <mxCell id="0" />
        <mxCell id="1" parent="0" />
        <mxCell id="OgX5WUm0DJhM8NZejiil-3" style="edgeStyle=orthogonalEdgeStyle;rounded=0;orthogonalLoop=1;jettySize=auto;html=1;exitX=0.5;exitY=1;exitDx=0;exitDy=0;entryX=0.5;entryY=0;entryDx=0;entryDy=0;" edge="1" parent="1" source="OgX5WUm0DJhM8NZejiil-1" target="OgX5WUm0DJhM8NZejiil-2">
          <mxGeometry relative="1" as="geometry" />
        </mxCell>
        <mxCell id="OgX5WUm0DJhM8NZejiil-1" value="L&#39;utilisateur donne 2 nombres" style="rounded=1;whiteSpace=wrap;html=1;" vertex="1" parent="1">
          <mxGeometry x="370" y="60" width="180" height="90" as="geometry" />
        </mxCell>
        <mxCell id="OgX5WUm0DJhM8NZejiil-5" style="edgeStyle=orthogonalEdgeStyle;rounded=0;orthogonalLoop=1;jettySize=auto;html=1;exitX=0;exitY=0.5;exitDx=0;exitDy=0;entryX=0.5;entryY=0;entryDx=0;entryDy=0;" edge="1" parent="1" source="OgX5WUm0DJhM8NZejiil-2" target="OgX5WUm0DJhM8NZejiil-4">
          <mxGeometry relative="1" as="geometry" />
        </mxCell>
        <mxCell id="OgX5WUm0DJhM8NZejiil-7" style="edgeStyle=orthogonalEdgeStyle;rounded=0;orthogonalLoop=1;jettySize=auto;html=1;exitX=1;exitY=0.5;exitDx=0;exitDy=0;entryX=0.5;entryY=0;entryDx=0;entryDy=0;" edge="1" parent="1" source="OgX5WUm0DJhM8NZejiil-2" target="OgX5WUm0DJhM8NZejiil-6">
          <mxGeometry relative="1" as="geometry" />
        </mxCell>
        <mxCell id="OgX5WUm0DJhM8NZejiil-2" value="L&#39;utilisateur demande de faire sois une addition ou une soustraction" style="rhombus;whiteSpace=wrap;html=1;" vertex="1" parent="1">
          <mxGeometry x="345" y="190" width="230" height="220" as="geometry" />
        </mxCell>
        <mxCell id="OgX5WUm0DJhM8NZejiil-11" style="edgeStyle=orthogonalEdgeStyle;rounded=0;orthogonalLoop=1;jettySize=auto;html=1;exitX=0.5;exitY=1;exitDx=0;exitDy=0;" edge="1" parent="1" source="OgX5WUm0DJhM8NZejiil-4" target="OgX5WUm0DJhM8NZejiil-10">
          <mxGeometry relative="1" as="geometry" />
        </mxCell>
        <mxCell id="OgX5WUm0DJhM8NZejiil-4" value="Additionne les nombres et affiche le résultat" style="rounded=1;whiteSpace=wrap;html=1;" vertex="1" parent="1">
          <mxGeometry x="190" y="370" width="120" height="60" as="geometry" />
        </mxCell>
        <mxCell id="OgX5WUm0DJhM8NZejiil-12" style="edgeStyle=orthogonalEdgeStyle;rounded=0;orthogonalLoop=1;jettySize=auto;html=1;exitX=0.5;exitY=1;exitDx=0;exitDy=0;" edge="1" parent="1" source="OgX5WUm0DJhM8NZejiil-6">
          <mxGeometry relative="1" as="geometry">
            <mxPoint x="460" y="500" as="targetPoint" />
          </mxGeometry>
        </mxCell>
        <mxCell id="OgX5WUm0DJhM8NZejiil-6" value="Soustrait les nombres et affiche le résultat" style="rounded=1;whiteSpace=wrap;html=1;" vertex="1" parent="1">
          <mxGeometry x="610" y="370" width="120" height="60" as="geometry" />
        </mxCell>
        <mxCell id="OgX5WUm0DJhM8NZejiil-8" value="Addition" style="text;html=1;align=center;verticalAlign=middle;resizable=0;points=[];autosize=1;strokeColor=none;fillColor=none;" vertex="1" parent="1">
          <mxGeometry x="250" y="270" width="70" height="30" as="geometry" />
        </mxCell>
        <mxCell id="OgX5WUm0DJhM8NZejiil-9" value="Soustraction" style="text;html=1;align=center;verticalAlign=middle;resizable=0;points=[];autosize=1;strokeColor=none;fillColor=none;" vertex="1" parent="1">
          <mxGeometry x="580" y="270" width="90" height="30" as="geometry" />
        </mxCell>
        <mxCell id="OgX5WUm0DJhM8NZejiil-14" style="edgeStyle=orthogonalEdgeStyle;rounded=0;orthogonalLoop=1;jettySize=auto;html=1;exitX=0;exitY=0.5;exitDx=0;exitDy=0;entryX=0;entryY=0.5;entryDx=0;entryDy=0;" edge="1" parent="1" source="OgX5WUm0DJhM8NZejiil-10" target="OgX5WUm0DJhM8NZejiil-1">
          <mxGeometry relative="1" as="geometry">
            <mxPoint x="340" y="160" as="targetPoint" />
            <Array as="points">
              <mxPoint x="160" y="585" />
              <mxPoint x="160" y="105" />
            </Array>
          </mxGeometry>
        </mxCell>
        <mxCell id="OgX5WUm0DJhM8NZejiil-16" style="edgeStyle=orthogonalEdgeStyle;rounded=0;orthogonalLoop=1;jettySize=auto;html=1;exitX=0.5;exitY=1;exitDx=0;exitDy=0;entryX=0.5;entryY=0;entryDx=0;entryDy=0;" edge="1" parent="1" source="OgX5WUm0DJhM8NZejiil-10" target="OgX5WUm0DJhM8NZejiil-17">
          <mxGeometry relative="1" as="geometry">
            <mxPoint x="460" y="740" as="targetPoint" />
          </mxGeometry>
        </mxCell>
        <mxCell id="OgX5WUm0DJhM8NZejiil-10" value="Demande à l&#39;utilisateur s&#39;il désir faire une nouvelle opération" style="rhombus;whiteSpace=wrap;html=1;" vertex="1" parent="1">
          <mxGeometry x="355" y="502" width="210" height="165" as="geometry" />
        </mxCell>
        <mxCell id="OgX5WUm0DJhM8NZejiil-13" style="edgeStyle=orthogonalEdgeStyle;rounded=0;orthogonalLoop=1;jettySize=auto;html=1;exitX=0.5;exitY=1;exitDx=0;exitDy=0;" edge="1" parent="1" source="OgX5WUm0DJhM8NZejiil-6">
          <mxGeometry relative="1" as="geometry">
            <mxPoint x="670" y="430" as="sourcePoint" />
            <mxPoint x="460" y="500" as="targetPoint" />
            <Array as="points">
              <mxPoint x="670" y="465" />
              <mxPoint x="461" y="465" />
            </Array>
          </mxGeometry>
        </mxCell>
        <mxCell id="OgX5WUm0DJhM8NZejiil-15" value="Oui" style="text;html=1;align=center;verticalAlign=middle;resizable=0;points=[];autosize=1;strokeColor=none;fillColor=none;" vertex="1" parent="1">
          <mxGeometry x="280" y="555" width="40" height="30" as="geometry" />
        </mxCell>
        <mxCell id="OgX5WUm0DJhM8NZejiil-17" value="Fin du programme" style="ellipse;whiteSpace=wrap;html=1;aspect=fixed;" vertex="1" parent="1">
          <mxGeometry x="420" y="720" width="80" height="80" as="geometry" />
        </mxCell>
      </root>
    </mxGraphModel>
  </diagram>
</mxfile>
